<svg width="32" height="32" viewBox="0 0 32 32" fill="none" xmlns="http://www.w3.org/2000/svg">
<g id="Frame">
<path id="Vector" d="M6.6665 21.3335H19.9998L15.3998 15.3335L12.3332 19.3335L10.2665 16.6668L6.6665 21.3335ZM5.33317 26.6668C4.59984 26.6668 3.97206 26.4057 3.44984 25.8835C2.92761 25.3613 2.6665 24.7335 2.6665 24.0002V8.00016C2.6665 7.26683 2.92761 6.63905 3.44984 6.11683C3.97206 5.59461 4.59984 5.3335 5.33317 5.3335H21.3332C22.0665 5.3335 22.6943 5.59461 23.2165 6.11683C23.7387 6.63905 23.9998 7.26683 23.9998 8.00016V14.0002L29.3332 8.66683V23.3335L23.9998 18.0002V24.0002C23.9998 24.7335 23.7387 25.3613 23.2165 25.8835C22.6943 26.4057 22.0665 26.6668 21.3332 26.6668H5.33317ZM5.33317 24.0002H21.3332V8.00016H5.33317V24.0002Z" fill="#E8EAED"/>
</g>
</svg>
