<svg width="32" height="32" viewBox="0 0 32 32" fill="none" xmlns="http://www.w3.org/2000/svg">
<g id="Frame">
<path id="Vector" d="M7.99984 20H10.6665V12H7.99984V20ZM14.6665 20H17.3332V12H14.6665V20ZM21.3332 20H23.9998V12H21.3332V20ZM5.33317 22.6667H26.6665V9.33333H5.33317V22.6667ZM6.6665 28V25.3333H5.33317C4.59984 25.3333 3.97206 25.0722 3.44984 24.55C2.92761 24.0278 2.6665 23.4 2.6665 22.6667V9.33333C2.6665 8.6 2.92761 7.97222 3.44984 7.45C3.97206 6.92778 4.59984 6.66667 5.33317 6.66667H6.6665V4H9.33317V6.66667H14.6665V4H17.3332V6.66667H22.6665V4H25.3332V6.66667H26.6665C27.3998 6.66667 28.0276 6.92778 28.5498 7.45C29.0721 7.97222 29.3332 8.6 29.3332 9.33333V22.6667C29.3332 23.4 29.0721 24.0278 28.5498 24.55C28.0276 25.0722 27.3998 25.3333 26.6665 25.3333H25.3332V28H22.6665V25.3333H17.3332V28H14.6665V25.3333H9.33317V28H6.6665Z" fill="#E8EAED"/>
</g>
</svg>
