<svg width="32" height="32" viewBox="0 0 32 32" fill="none" xmlns="http://www.w3.org/2000/svg">
<g id="Frame">
<path id="Vector" d="M16 29.3332L4 22.6665V9.33317L16 2.6665L28 9.33317V22.6665L16 29.3332ZM12.1333 12.3332C12.6444 11.7998 13.2333 11.3887 13.9 11.0998C14.5667 10.8109 15.2667 10.6665 16 10.6665C16.7333 10.6665 17.4333 10.8109 18.1 11.0998C18.7667 11.3887 19.3556 11.7998 19.8667 12.3332L23.8667 10.0998L16 5.73317L8.13333 10.0998L12.1333 12.3332ZM14.6667 25.5332V21.1665C13.4667 20.8554 12.5 20.2221 11.7667 19.2665C11.0333 18.3109 10.6667 17.2221 10.6667 15.9998C10.6667 15.7554 10.6778 15.5276 10.7 15.3165C10.7222 15.1054 10.7667 14.8887 10.8333 14.6665L6.66667 12.3332V21.0998L14.6667 25.5332ZM16 18.6665C16.7333 18.6665 17.3611 18.4054 17.8833 17.8832C18.4056 17.3609 18.6667 16.7332 18.6667 15.9998C18.6667 15.2665 18.4056 14.6387 17.8833 14.1165C17.3611 13.5943 16.7333 13.3332 16 13.3332C15.2667 13.3332 14.6389 13.5943 14.1167 14.1165C13.5944 14.6387 13.3333 15.2665 13.3333 15.9998C13.3333 16.7332 13.5944 17.3609 14.1167 17.8832C14.6389 18.4054 15.2667 18.6665 16 18.6665ZM17.3333 25.5332L25.3333 21.0998V12.3332L21.1667 14.6665C21.2333 14.8887 21.2778 15.1054 21.3 15.3165C21.3222 15.5276 21.3333 15.7554 21.3333 15.9998C21.3333 17.2221 20.9667 18.3109 20.2333 19.2665C19.5 20.2221 18.5333 20.8554 17.3333 21.1665V25.5332Z" fill="#E8EAED"/>
</g>
</svg>
