<svg width="32" height="32" viewBox="0 0 32 32" fill="none" xmlns="http://www.w3.org/2000/svg">
<g id="Frame">
<path id="Vector" d="M15.3333 25.3333H16.6667V22.8667L21.3333 18.2V12H10.6667V18.2L15.3333 22.8667V25.3333ZM12.6667 28V24L8 19.3333V12C8 11.2667 8.26111 10.6389 8.78333 10.1167C9.30556 9.59444 9.93333 9.33333 10.6667 9.33333H12L10.6667 10.6667V4H13.3333V9.33333H18.6667V4H21.3333V10.6667L20 9.33333H21.3333C22.0667 9.33333 22.6944 9.59444 23.2167 10.1167C23.7389 10.6389 24 11.2667 24 12V19.3333L19.3333 24V28H12.6667Z" fill="#E8EAED"/>
</g>
</svg>
