<svg width="32" height="32" viewBox="0 0 32 32" fill="none" xmlns="http://www.w3.org/2000/svg">
<g id="Frame">
<path id="Vector" d="M14.1332 29.3332C12.9998 29.3332 12.1387 28.9943 11.5498 28.3165C10.9609 27.6387 10.6665 26.8665 10.6665 25.9998C10.6665 25.4221 10.7943 24.8609 11.0498 24.3165C11.3054 23.7721 11.6998 23.3221 12.2332 22.9665C12.7221 22.6554 13.1165 22.2554 13.4165 21.7665C13.7165 21.2776 13.9221 20.7554 14.0332 20.1998L13.6332 19.9998C13.4998 19.9332 13.3776 19.8554 13.2665 19.7665L10.1998 20.8665C9.82206 20.9998 9.45539 21.1109 9.09984 21.1998C8.74428 21.2887 8.37761 21.3332 7.99984 21.3332C6.59984 21.3332 5.36095 20.7221 4.28317 19.4998C3.20539 18.2776 2.6665 16.4887 2.6665 14.1332C2.6665 12.9998 3.00539 12.1387 3.68317 11.5498C4.36095 10.9609 5.12206 10.6665 5.9665 10.6665C6.54428 10.6665 7.11095 10.7943 7.6665 11.0498C8.22206 11.3054 8.67761 11.6998 9.03317 12.2332C9.34428 12.7221 9.74428 13.1165 10.2332 13.4165C10.7221 13.7165 11.2443 13.9221 11.7998 14.0332L11.9998 13.6332C12.0665 13.4998 12.1443 13.3776 12.2332 13.2665L11.1332 10.1998C10.9998 9.82206 10.8887 9.45539 10.7998 9.09984C10.7109 8.74428 10.6665 8.38873 10.6665 8.03317C10.6665 6.61095 11.2776 5.36095 12.4998 4.28317C13.7221 3.20539 15.5109 2.6665 17.8665 2.6665C18.9998 2.6665 19.8609 3.00539 20.4498 3.68317C21.0387 4.36095 21.3332 5.12206 21.3332 5.9665C21.3332 6.54428 21.2054 7.11095 20.9498 7.6665C20.6943 8.22206 20.2998 8.67761 19.7665 9.03317C19.2776 9.34428 18.8832 9.74428 18.5832 10.2332C18.2832 10.7221 18.0776 11.2443 17.9665 11.7998L18.3665 11.9998C18.4998 12.0665 18.6221 12.1443 18.7332 12.2332L21.7998 11.0998C22.1776 10.9665 22.5387 10.8609 22.8832 10.7832C23.2276 10.7054 23.5887 10.6665 23.9665 10.6665C25.7665 10.6665 27.1109 11.4109 27.9998 12.8998C28.8887 14.3887 29.3332 16.0443 29.3332 17.8665C29.3332 18.9998 28.9776 19.8609 28.2665 20.4498C27.5554 21.0387 26.7665 21.3332 25.8998 21.3332C25.3443 21.3332 24.8054 21.2054 24.2832 20.9498C23.7609 20.6943 23.3221 20.2998 22.9665 19.7665C22.6554 19.2776 22.2554 18.8832 21.7665 18.5832C21.2776 18.2832 20.7554 18.0776 20.1998 17.9665L19.9998 18.3665C19.9332 18.4998 19.8554 18.6221 19.7665 18.7332L20.8665 21.7998C20.9998 22.1554 21.1109 22.4943 21.1998 22.8165C21.2887 23.1387 21.3332 23.4776 21.3332 23.8332C21.3554 25.2776 20.7554 26.5554 19.5332 27.6665C18.3109 28.7776 16.5109 29.3332 14.1332 29.3332ZM15.9998 17.9998C16.5554 17.9998 17.0276 17.8054 17.4165 17.4165C17.8054 17.0276 17.9998 16.5554 17.9998 15.9998C17.9998 15.4443 17.8054 14.9721 17.4165 14.5832C17.0276 14.1943 16.5554 13.9998 15.9998 13.9998C15.4443 13.9998 14.9721 14.1943 14.5832 14.5832C14.1943 14.9721 13.9998 15.4443 13.9998 15.9998C13.9998 16.5554 14.1943 17.0276 14.5832 17.4165C14.9721 17.8054 15.4443 17.9998 15.9998 17.9998ZM14.4665 11.5998C14.5998 11.5554 14.7387 11.5165 14.8832 11.4832C15.0276 11.4498 15.1665 11.4221 15.2998 11.3998C15.4776 10.4665 15.8165 9.59984 16.3165 8.79984C16.8165 7.99984 17.4776 7.33317 18.2998 6.79984C18.4109 6.71095 18.4998 6.59984 18.5665 6.4665C18.6332 6.33317 18.6665 6.1665 18.6665 5.9665C18.6665 5.78873 18.5998 5.63873 18.4665 5.5165C18.3332 5.39428 18.1332 5.33317 17.8665 5.33317C17.0221 5.33317 16.0665 5.5165 14.9998 5.88317C13.9332 6.24984 13.3776 6.9665 13.3332 8.03317C13.3332 8.23317 13.3609 8.42206 13.4165 8.59984C13.4721 8.77761 13.5221 8.94428 13.5665 9.09984L14.4665 11.5998ZM7.99984 18.6665C8.31095 18.6665 8.67761 18.5887 9.09984 18.4332L11.5998 17.5332C11.5554 17.3998 11.5165 17.2609 11.4832 17.1165C11.4498 16.9721 11.4221 16.8332 11.3998 16.6998C10.4665 16.5221 9.59984 16.1832 8.79984 15.6832C7.99984 15.1832 7.33317 14.5221 6.79984 13.6998C6.71095 13.5887 6.59428 13.4998 6.44984 13.4332C6.30539 13.3665 6.14428 13.3332 5.9665 13.3332C5.7665 13.3332 5.61095 13.3998 5.49984 13.5332C5.38873 13.6665 5.33317 13.8665 5.33317 14.1332C5.33317 15.3332 5.56095 16.3887 6.0165 17.2998C6.47206 18.2109 7.13317 18.6665 7.99984 18.6665ZM14.1332 26.6665C15.1776 26.6665 16.2054 26.4554 17.2165 26.0332C18.2276 25.6109 18.7109 24.8776 18.6665 23.8332C18.6665 23.6554 18.6387 23.4887 18.5832 23.3332C18.5276 23.1776 18.4776 23.0332 18.4332 22.8998L17.5332 20.3998C17.3998 20.4443 17.2609 20.4832 17.1165 20.5165C16.9721 20.5498 16.8332 20.5776 16.6998 20.5998C16.5221 21.5332 16.1832 22.3998 15.6832 23.1998C15.1832 23.9998 14.5221 24.6665 13.6998 25.1998C13.5887 25.2887 13.4943 25.4054 13.4165 25.5498C13.3387 25.6943 13.3109 25.8443 13.3332 25.9998C13.3554 26.1776 13.4221 26.3332 13.5332 26.4665C13.6443 26.5998 13.8443 26.6665 14.1332 26.6665ZM25.8998 18.6665C26.0998 18.6665 26.2776 18.6109 26.4332 18.4998C26.5887 18.3887 26.6665 18.1776 26.6665 17.8665C26.6665 17.0221 26.4887 16.0609 26.1332 14.9832C25.7776 13.9054 25.0554 13.3554 23.9665 13.3332C23.7665 13.3332 23.5776 13.3554 23.3998 13.3998C23.2221 13.4443 23.0554 13.4887 22.8998 13.5332L20.3998 14.4665C20.4443 14.5998 20.4832 14.7387 20.5165 14.8832C20.5498 15.0276 20.5776 15.1665 20.5998 15.2998C21.5332 15.4776 22.3998 15.8165 23.1998 16.3165C23.9998 16.8165 24.6665 17.4776 25.1998 18.2998C25.2665 18.4109 25.3665 18.4998 25.4998 18.5665C25.6332 18.6332 25.7665 18.6665 25.8998 18.6665Z" fill="#E8EAED"/>
</g>
</svg>
