<svg width="32" height="32" viewBox="0 0 32 32" fill="none" xmlns="http://www.w3.org/2000/svg">
<g id="Frame">
<path id="Vector" d="M14.6667 25.8998V16.7665L6.66667 12.1332V21.2665L14.6667 25.8998ZM17.3333 25.8998L25.3333 21.2665V12.1332L17.3333 16.7665V25.8998ZM14.6667 28.9665L5.33333 23.5998C4.91111 23.3554 4.58333 23.0332 4.35 22.6332C4.11667 22.2332 4 21.7887 4 21.2998V10.6998C4 10.2109 4.11667 9.7665 4.35 9.3665C4.58333 8.9665 4.91111 8.64428 5.33333 8.39984L14.6667 3.03317C15.0889 2.78873 15.5333 2.6665 16 2.6665C16.4667 2.6665 16.9111 2.78873 17.3333 3.03317L26.6667 8.39984C27.0889 8.64428 27.4167 8.9665 27.65 9.3665C27.8833 9.7665 28 10.2109 28 10.6998V21.2998C28 21.7887 27.8833 22.2332 27.65 22.6332C27.4167 23.0332 27.0889 23.3554 26.6667 23.5998L17.3333 28.9665C16.9111 29.2109 16.4667 29.3332 16 29.3332C15.5333 29.3332 15.0889 29.2109 14.6667 28.9665ZM21.3333 11.3665L23.9 9.89984L16 5.33317L13.4 6.83317L21.3333 11.3665ZM16 14.4665L18.6 12.9665L10.7 8.39984L8.1 9.89984L16 14.4665Z" fill="#E8EAED"/>
</g>
</svg>
