<svg width="32" height="32" viewBox="0 0 32 32" fill="none" xmlns="http://www.w3.org/2000/svg">
<g id="Frame">
<path id="Vector" d="M15.9998 18.1555C14.9925 18.1555 14.1444 17.7968 13.4555 17.0795C12.7666 16.3622 12.4222 15.4912 12.4222 14.4665V6.22217C12.4222 5.23439 12.7698 4.39484 13.4652 3.7035C14.1607 3.01217 15.0052 2.6665 15.9985 2.6665C16.9921 2.6665 17.8369 3.01217 18.5332 3.7035C19.2294 4.39484 19.5775 5.23439 19.5775 6.22217V14.4665C19.5775 15.4912 19.2331 16.3622 18.5442 17.0795C17.8553 17.7968 17.0072 18.1555 15.9998 18.1555ZM14.8888 27.9998V23.6108C12.5479 23.3442 10.5924 22.3405 9.02217 20.5998C7.45173 18.8592 6.6665 16.8147 6.6665 14.4665H8.88884C8.88884 16.4294 9.58173 18.0868 10.9675 19.4388C12.3531 20.7906 14.0289 21.4665 15.9952 21.4665C17.9612 21.4665 19.6386 20.7906 21.0275 19.4388C22.4164 18.0868 23.1108 16.4294 23.1108 14.4665H25.3332C25.3332 16.8147 24.548 18.8592 22.9775 20.5998C21.4073 22.3405 19.4517 23.3442 17.1108 23.6108V27.9998H14.8888ZM15.9998 15.9332C16.3925 15.9332 16.7166 15.7906 16.9722 15.5055C17.2277 15.2202 17.3555 14.8738 17.3555 14.4665V6.22217C17.3555 5.84439 17.2256 5.52773 16.9658 5.27217C16.7058 5.01661 16.3838 4.88884 15.9998 4.88884C15.6158 4.88884 15.2938 5.01661 15.0338 5.27217C14.7741 5.52773 14.6442 5.84439 14.6442 6.22217V14.4665C14.6442 14.8738 14.7719 15.2202 15.0275 15.5055C15.2831 15.7906 15.6072 15.9332 15.9998 15.9332Z" fill="#E8EAED"/>
</g>
</svg>
