<svg width="32" height="32" viewBox="0 0 32 32" fill="none" xmlns="http://www.w3.org/2000/svg">
<g id="Frame">
<path id="Vector" d="M15.9998 23.3333C17.6665 23.3333 19.0832 22.75 20.2498 21.5833C21.4165 20.4167 21.9998 19 21.9998 17.3333C21.9998 15.6667 21.4165 14.25 20.2498 13.0833C19.0832 11.9167 17.6665 11.3333 15.9998 11.3333C14.3332 11.3333 12.9165 11.9167 11.7498 13.0833C10.5832 14.25 9.99984 15.6667 9.99984 17.3333C9.99984 19 10.5832 20.4167 11.7498 21.5833C12.9165 22.75 14.3332 23.3333 15.9998 23.3333ZM15.9998 20.6667C15.0665 20.6667 14.2776 20.3444 13.6332 19.7C12.9887 19.0556 12.6665 18.2667 12.6665 17.3333C12.6665 16.4 12.9887 15.6111 13.6332 14.9667C14.2776 14.3222 15.0665 14 15.9998 14C16.9332 14 17.7221 14.3222 18.3665 14.9667C19.0109 15.6111 19.3332 16.4 19.3332 17.3333C19.3332 18.2667 19.0109 19.0556 18.3665 19.7C17.7221 20.3444 16.9332 20.6667 15.9998 20.6667ZM5.33317 28C4.59984 28 3.97206 27.7389 3.44984 27.2167C2.92761 26.6944 2.6665 26.0667 2.6665 25.3333V9.33333C2.6665 8.6 2.92761 7.97222 3.44984 7.45C3.97206 6.92778 4.59984 6.66667 5.33317 6.66667H9.53317L11.9998 4H19.9998L22.4665 6.66667H26.6665C27.3998 6.66667 28.0276 6.92778 28.5498 7.45C29.0721 7.97222 29.3332 8.6 29.3332 9.33333V25.3333C29.3332 26.0667 29.0721 26.6944 28.5498 27.2167C28.0276 27.7389 27.3998 28 26.6665 28H5.33317ZM5.33317 25.3333H26.6665V9.33333H21.2665L18.8332 6.66667H13.1665L10.7332 9.33333H5.33317V25.3333Z" fill="#E8EAED"/>
</g>
</svg>
