<svg width="32" height="32" viewBox="0 0 32 32" fill="none" xmlns="http://www.w3.org/2000/svg">
<g id="Frame">
<path id="Vector" d="M5.33317 25.3332C4.59984 25.3332 3.97206 25.0721 3.44984 24.5498C2.92761 24.0276 2.6665 23.3998 2.6665 22.6665V9.33317C2.6665 8.59984 2.92761 7.97206 3.44984 7.44984C3.97206 6.92761 4.59984 6.6665 5.33317 6.6665H26.6665C27.3998 6.6665 28.0276 6.92761 28.5498 7.44984C29.0721 7.97206 29.3332 8.59984 29.3332 9.33317V22.6665C29.3332 23.3998 29.0721 24.0276 28.5498 24.5498C28.0276 25.0721 27.3998 25.3332 26.6665 25.3332H5.33317ZM5.33317 22.6665H26.6665V9.33317H5.33317V22.6665ZM10.6665 21.3332H21.3332V18.6665H10.6665V21.3332ZM6.6665 17.3332H9.33317V14.6665H6.6665V17.3332ZM10.6665 17.3332H13.3332V14.6665H10.6665V17.3332ZM14.6665 17.3332H17.3332V14.6665H14.6665V17.3332ZM18.6665 17.3332H21.3332V14.6665H18.6665V17.3332ZM22.6665 17.3332H25.3332V14.6665H22.6665V17.3332ZM6.6665 13.3332H9.33317V10.6665H6.6665V13.3332ZM10.6665 13.3332H13.3332V10.6665H10.6665V13.3332ZM14.6665 13.3332H17.3332V10.6665H14.6665V13.3332ZM18.6665 13.3332H21.3332V10.6665H18.6665V13.3332ZM22.6665 13.3332H25.3332V10.6665H22.6665V13.3332Z" fill="#E8EAED"/>
</g>
</svg>
