<svg width="19" height="28" viewBox="0 0 19 28" fill="none" xmlns="http://www.w3.org/2000/svg">
<path id="Vector" d="M9.33333 27.3332C6.75556 27.3332 4.55556 26.4221 2.73333 24.5998C0.911111 22.7776 0 20.5776 0 17.9998V9.99984C0 7.42206 0.911111 5.22206 2.73333 3.39984C4.55556 1.57761 6.75556 0.666504 9.33333 0.666504C11.9111 0.666504 14.1111 1.57761 15.9333 3.39984C17.7556 5.22206 18.6667 7.42206 18.6667 9.99984V17.9998C18.6667 20.5776 17.7556 22.7776 15.9333 24.5998C14.1111 26.4221 11.9111 27.3332 9.33333 27.3332ZM10.6667 9.99984H16C16 8.39984 15.4944 6.98873 14.4833 5.7665C13.4722 4.54428 12.2 3.77761 10.6667 3.4665V9.99984ZM2.66667 9.99984H8V3.4665C6.46667 3.77761 5.19444 4.54428 4.18333 5.7665C3.17222 6.98873 2.66667 8.39984 2.66667 9.99984ZM9.33333 24.6665C11.1778 24.6665 12.75 24.0165 14.05 22.7165C15.35 21.4165 16 19.8443 16 17.9998V12.6665H2.66667V17.9998C2.66667 19.8443 3.31667 21.4165 4.61667 22.7165C5.91667 24.0165 7.48889 24.6665 9.33333 24.6665Z" fill="#E8EAED"/>
</svg>
