<svg width="32" height="32" viewBox="0 0 32 32" fill="none" xmlns="http://www.w3.org/2000/svg">
<g id="Frame">
<path id="Vector" d="M10.6665 28V25.3333H13.3332V22.6667H5.33317C4.59984 22.6667 3.97206 22.4056 3.44984 21.8833C2.92761 21.3611 2.6665 20.7333 2.6665 20V6.66667C2.6665 5.93333 2.92761 5.30556 3.44984 4.78333C3.97206 4.26111 4.59984 4 5.33317 4H26.6665C27.3998 4 28.0276 4.26111 28.5498 4.78333C29.0721 5.30556 29.3332 5.93333 29.3332 6.66667V20C29.3332 20.7333 29.0721 21.3611 28.5498 21.8833C28.0276 22.4056 27.3998 22.6667 26.6665 22.6667H18.6665V25.3333H21.3332V28H10.6665ZM5.33317 20H26.6665V6.66667H5.33317V20Z" fill="#E8EAED"/>
</g>
</svg>
