<svg width="74" height="40" viewBox="0 0 74 40" fill="none" xmlns="http://www.w3.org/2000/svg">
<path d="M41.0266 39.955L27.1563 39.9564C23.5359 39.9584 19.0349 40.2269 15.5527 39.4067C7.32835 37.469 0.919709 30.3371 0.103638 21.9033C-0.992403 10.5738 6.71386 1.03211 18.0626 0H65.7296V7.68425L22.8264 7.68134C20.9244 7.68085 19.002 7.61371 17.1424 8.08001C5.25625 11.06 5.08903 27.8563 15.8622 31.3651C18.5408 32.2373 22.2672 31.9659 25.0974 31.9659L33.5621 31.9634V23.4151H19.1967C19.1962 22.598 19.1156 16.1097 19.2508 15.8422L19.4071 15.8118H41.0266V39.955Z" fill="#FFDA12"/>
<path d="M58.0098 7.60138H65.7296V15.8118H74V23.4151H65.7296V32.5144C65.1339 32.528 64.5372 32.5175 63.9412 32.5144H58.0098V23.4151H49.5349V15.8118H58.0098V7.60138Z" fill="#FFDA12"/>
</svg>
