<svg width="32" height="32" viewBox="0 0 32 32" fill="none" xmlns="http://www.w3.org/2000/svg">
<g id="Frame">
<path id="Vector" d="M15.9997 15.9998C16.733 15.9998 17.3608 15.7387 17.883 15.2165C18.4052 14.6943 18.6663 14.0665 18.6663 13.3332C18.6663 12.5998 18.4052 11.9721 17.883 11.4498C17.3608 10.9276 16.733 10.6665 15.9997 10.6665C15.2663 10.6665 14.6386 10.9276 14.1163 11.4498C13.5941 11.9721 13.333 12.5998 13.333 13.3332C13.333 14.0665 13.5941 14.6943 14.1163 15.2165C14.6386 15.7387 15.2663 15.9998 15.9997 15.9998ZM15.9997 25.7998C18.7108 23.3109 20.7219 21.0498 22.033 19.0165C23.3441 16.9832 23.9997 15.1776 23.9997 13.5998C23.9997 11.1776 23.2275 9.19428 21.683 7.64984C20.1386 6.10539 18.2441 5.33317 15.9997 5.33317C13.7552 5.33317 11.8608 6.10539 10.3163 7.64984C8.7719 9.19428 7.99967 11.1776 7.99967 13.5998C7.99967 15.1776 8.65523 16.9832 9.96634 19.0165C11.2775 21.0498 13.2886 23.3109 15.9997 25.7998ZM15.9997 29.3332C12.4219 26.2887 9.74967 23.4609 7.98301 20.8498C6.21634 18.2387 5.33301 15.8221 5.33301 13.5998C5.33301 10.2665 6.40523 7.61095 8.54967 5.63317C10.6941 3.65539 13.1775 2.6665 15.9997 2.6665C18.8219 2.6665 21.3052 3.65539 23.4497 5.63317C25.5941 7.61095 26.6663 10.2665 26.6663 13.5998C26.6663 15.8221 25.783 18.2387 24.0163 20.8498C22.2497 23.4609 19.5775 26.2887 15.9997 29.3332Z" fill="#E8EAED"/>
</g>
</svg>
