<svg width="32" height="32" viewBox="0 0 32 32" fill="none" xmlns="http://www.w3.org/2000/svg">
<g id="Frame">
<path id="Vector" d="M20.7337 22.3775L22.356 20.7555L17.178 15.5555V9.04417H14.956V16.4442L20.7337 22.3775ZM16.0003 29.3332C14.1708 29.3332 12.4449 28.9832 10.8227 28.2832C9.20044 27.5832 7.78555 26.6295 6.57799 25.4222C5.37066 24.2146 4.41699 22.7997 3.71699 21.1775C3.01699 19.5553 2.66699 17.8294 2.66699 15.9998C2.66699 14.1703 3.01699 12.4444 3.71699 10.8222C4.41699 9.19995 5.37066 7.78506 6.57799 6.5775C7.78555 5.37017 9.20044 4.4165 10.8227 3.7165C12.4449 3.0165 14.1708 2.6665 16.0003 2.6665C17.8299 2.6665 19.5558 3.0165 21.178 3.7165C22.8002 4.4165 24.2151 5.37017 25.4227 6.5775C26.63 7.78506 27.5837 9.19995 28.2837 10.8222C28.9837 12.4444 29.3337 14.1703 29.3337 15.9998C29.3337 17.8294 28.9837 19.5553 28.2837 21.1775C27.5837 22.7997 26.63 24.2146 25.4227 25.4222C24.2151 26.6295 22.8002 27.5832 21.178 28.2832C19.5558 28.9832 17.8299 29.3332 16.0003 29.3332ZM16.0003 27.1108C19.0597 27.1108 21.6763 26.0238 23.8503 23.8498C26.0243 21.6758 27.1113 19.0592 27.1113 15.9998C27.1113 12.9405 26.0243 10.3238 23.8503 8.14984C21.6763 5.97584 19.0597 4.88884 16.0003 4.88884C12.941 4.88884 10.3243 5.97584 8.15033 8.14984C5.97633 10.3238 4.88933 12.9405 4.88933 15.9998C4.88933 19.0592 5.97633 21.6758 8.15033 23.8498C10.3243 26.0238 12.941 27.1108 16.0003 27.1108Z" fill="#E8EAED"/>
</g>
</svg>
